<svg xmlns="http://www.w3.org/2000/svg" xmlns:xlink="http://www.w3.org/1999/xlink" width="144" height="25" viewBox="0 0 144 25"><defs><linearGradient id="a" x1="0%" y1="0%" y2="100%"><stop offset="0%" stop-color="#E9AA43"/><stop offset="19.866%" stop-color="#E09220"/><stop offset="42.128%" stop-color="#E9AA43"/><stop offset="59.674%" stop-color="#F4D37C"/><stop offset="78.015%" stop-color="#E9AA43"/><stop offset="100%" stop-color="#E39A2C"/></linearGradient><path id="b" d="M6.24 9.822c4.653-1.605 5.446-5.784 4.85-9.626 0-.14.12-.238.24-.178 4.455 2.158 9.466 6.892 9.466 14.022 0 5.467-4.238 10.3-10.398 10.3C3.823 24.34 0 19.646 0 14.04c0-3.268 2.317-6.635 4.813-8.06.12-.08.277 0 .277.138.06.733.258 2.595 1.07 3.684.02.02.06.02.08.02zm102.837-1.587c.24-.84 1.144-1.522 2.017-1.522h31.04c.876 0 1.39.683 1.152 1.522l-3.942 13.858c-.24.84-1.143 1.522-2.017 1.522h-31.04c-.876 0-1.39-.683-1.152-1.522l3.942-13.858z"/></defs><g fill="none" fill-rule="evenodd"><use fill="url(#a)" transform="translate(.095 .12)" xlink:href="#b"/><path fill="#424242" d="M33.997 20.145l.348-.402 1.047 3.34-.136.128c-.786.737-1.967 1.11-3.51 1.11h-.057c-1.39 0-2.475-.377-3.226-1.122-.767-.76-1.155-1.876-1.155-3.314v-9.05h-2.675V7.148h2.674V2.73h4.118v4.42h3.268v3.683h-3.288v8.18c0 .376.09 1.604 1.248 1.604.583 0 1.14-.24 1.34-.472zm2.795 3.8V7.17h4.12v16.775h-4.12zm2.04-23.61a2.479 2.479 0 012.476 2.476 2.478 2.478 0 01-2.476 2.477 2.479 2.479 0 01-2.476-2.476c0-1.34 1.134-2.474 2.476-2.474zm13.61 6.438c3.562 0 5.524 1.948 5.524 5.486v11.685h-4.12V13.23h.014c-.084-1.9-1.002-2.754-2.944-2.754-1.734 0-3.147 1.05-3.862 1.98v11.49h-4.12V7.168h4.12v1.77c1.192-1.128 3.093-2.167 5.387-2.167zm19.032 2.143V1.03h4.12v22.934h-4.12v-1.74c-1.31 1.354-3.055 2.117-4.892 2.117-4.49 0-7.506-3.525-7.506-8.773 0-5.26 3.016-8.794 7.506-8.794 1.847 0 3.59.772 4.892 2.143zm0 3.535c-.815-1.148-2.43-1.974-3.882-1.974-2.546 0-4.258 2.046-4.258 5.09 0 3.033 1.712 5.07 4.258 5.07 1.485 0 3.1-.808 3.882-1.932V12.45zm13.548-5.677c4.863 0 8.26 3.746 8.26 9.11v1.13H80.828c.41 2.357 2.264 3.862 4.806 3.862 1.608 0 3.37-.682 4.385-1.696l.252-.253 1.95 2.818-.18.175c-1.622 1.56-4.023 2.42-6.763 2.42-5.167 0-8.775-3.615-8.775-8.793.02-5.003 3.682-8.774 8.517-8.774zm-4.22 7.15h8.46c-.233-2.53-2.325-3.684-4.24-3.684-2.893 0-3.987 2.18-4.22 3.683zm22.442-7.13h.297v4.145l-.355-.07a5.398 5.398 0 00-1.05-.094c-1.33 0-3.174.928-3.863 1.93v11.22h-4.12V7.17h4.14v1.876c1.363-1.423 3.165-2.253 4.952-2.253z"/><path fill="#FAFBFC" d="M114.667 18.53c1.198 0 2.14-.497 2.812-1.25v-2.534h-3.15v1.228h1.743v.792c-.268.247-.822.505-1.406.505-1.2 0-2.07-.92-2.07-2.168 0-1.248.87-2.17 2.07-2.17a1.87 1.87 0 011.564.863l1.17-.634c-.495-.78-1.357-1.474-2.733-1.474-1.93 0-3.516 1.327-3.516 3.416 0 2.08 1.586 3.427 3.517 3.427zm7.06-.01c-1.99 0-3.446-1.427-3.446-3.418 0-1.99 1.457-3.416 3.448-3.416 2 0 3.456 1.426 3.456 3.416s-1.456 3.417-3.456 3.417zm0-1.25c1.22 0 2.01-.94 2.01-2.168 0-1.238-.79-2.17-2.01-2.17-1.218 0-2 .932-2 2.17 0 1.228.782 2.17 2 2.17zm8.646 1.13v-1.238h-2.793v-5.368h-1.406V18.4h4.2zm3.585 0h-2.605v-6.606h2.605c2.07 0 3.505 1.318 3.505 3.308 0 1.99-1.435 3.298-3.505 3.298zm0-1.238c1.307 0 2.07-.94 2.07-2.06 0-1.17-.713-2.07-2.07-2.07h-1.198v4.13h1.198z"/></g></svg>