<svg xmlns="http://www.w3.org/2000/svg" width="151" height="24" viewBox="0 0 151 24"><defs><linearGradient id="a" x1="51.634%" x2="29.369%" y1="17.649%" y2="100%"><stop offset="0%" stop-color="#2E2E2E"/><stop offset="0%" stop-color="#2E2E2E"/><stop offset="100%" stop-color="#121212"/></linearGradient><linearGradient id="b" x1="100%" x2="12.03%" y1="46.239%" y2="53.761%"><stop offset="0%" stop-color="#2E2E2E"/><stop offset="100%" stop-color="#121212"/></linearGradient></defs><g fill="none" fill-rule="evenodd"><path fill="url(#a)" d="M5.693 8.936C9.877 7.494 10.59 3.738 10.055.284c0-.125.107-.214.214-.16 4.005 1.94 8.51 6.195 8.51 12.604 0 4.914-3.81 9.258-9.347 9.258-5.91 0-9.346-4.22-9.346-9.258 0-2.937 2.082-5.964 4.326-7.245.106-.072.249 0 .249.124.053.659.231 2.332.961 3.311.018.018.054.018.071.018z" transform="translate(0 .5)"/><path fill="url(#b)" d="M98.13 7.51c.214-.755 1.027-1.368 1.813-1.368h48.9c.787 0 1.25.614 1.035 1.368l-3.543 12.456c-.215.756-1.028 1.369-1.813 1.369h-48.9c-.787 0-1.25-.615-1.036-1.369L98.13 7.51z" transform="translate(0 .5)"/><path fill="#424242" d="M67.948 1.425v20.616h-3.703v-1.565c-1.178 1.217-2.746 1.903-4.397 1.903-4.036 0-6.748-3.17-6.748-7.887 0-4.728 2.712-7.904 6.748-7.904 1.66 0 3.227.694 4.397 1.926V1.425h3.703zm8.474 5.163c4.371 0 7.424 3.367 7.424 8.19v1.014H72.653c.37 2.12 2.036 3.471 4.32 3.471 1.447 0 3.03-.612 3.942-1.524l.227-.226 1.753 2.533-.164.157c-1.456 1.403-3.615 2.176-6.078 2.176-4.643 0-7.886-3.25-7.886-7.905.019-4.496 3.31-7.886 7.655-7.886zM28.25 2.956v3.97h2.938v3.311h-2.955v7.353c0 .338.08 1.442 1.121 1.442.524 0 1.024-.216 1.205-.424l.313-.362.941 3.003-.122.114c-.706.662-1.768.998-3.156.998h-.05c-1.248 0-2.224-.34-2.899-1.01-.69-.684-1.039-1.686-1.039-2.978v-8.136h-2.403V6.926h2.403v-3.97h3.703zm8.525 3.988v15.079H33.07V6.943h3.703zm10.363-.356c3.202 0 4.966 1.751 4.966 4.931v10.504h-3.702v-9.631h.011c-.075-1.71-.9-2.475-2.646-2.475-1.559 0-2.83.943-3.472 1.78v10.326h-3.703V6.943h3.703v1.593c1.072-1.014 2.78-1.948 4.843-1.948zm45.93.018v3.726l-.319-.064a4.911 4.911 0 00-.945-.084c-1.194 0-2.852.835-3.471 1.736v10.085H84.63V6.944h3.72V8.63c1.226-1.279 2.846-2.025 4.452-2.025h.267zm-32.311 3.31c-2.29 0-3.828 1.84-3.828 4.576 0 2.726 1.538 4.558 3.828 4.558 1.334 0 2.786-.727 3.489-1.738v-5.62c-.733-1.033-2.185-1.775-3.49-1.775zm15.666-.213c-2.6 0-3.584 1.962-3.794 3.312h7.605c-.209-2.273-2.09-3.312-3.81-3.312zM34.904.802c1.227 0 2.226.998 2.226 2.225s-.999 2.226-2.226 2.226a2.228 2.228 0 01-2.225-2.226c0-1.206 1.019-2.225 2.225-2.225z"/><path fill="#FFF" fill-rule="nonzero" d="M101.872 17v-2.151h1.53c1.296 0 2.016-.873 2.016-1.917 0-1.053-.711-1.935-2.016-1.935h-2.808V17h1.278zm1.359-3.249h-1.359v-1.656h1.359c.504 0 .882.333.882.828 0 .504-.378.828-.882.828zM110.026 17v-1.125h-2.538v-4.878h-1.278V17h3.816zm1.656 0l.378-1.035h2.682L115.12 17h1.395l-2.313-6.003H112.6L110.278 17h1.404zm2.709-2.142h-1.989l.999-2.754.99 2.754zM119.17 17v-4.878h1.746v-1.125h-4.788v1.125h1.755V17h1.287zm3.843 0v-6.003h-1.278V17h1.278zm2.466 0v-4.032L128.341 17h1.233v-6.003h-1.278v3.888l-2.781-3.888h-1.314V17h1.278zm7.974.108c1.818 0 2.673-1.017 2.673-2.511v-3.6h-1.296v3.564c0 .837-.459 1.413-1.377 1.413-.936 0-1.395-.576-1.395-1.413v-3.564h-1.296v3.609c0 1.476.855 2.502 2.691 2.502zm5.139-.108v-4.32l1.692 4.32h.558l1.692-4.32V17h1.287v-6.003h-1.8l-1.458 3.744-1.458-3.744h-1.791V17h1.278z"/></g></svg>